<svg width="24" height="24" viewBox="0 0 24 24" fill="none" xmlns="http://www.w3.org/2000/svg">
<path d="M20.8952 3.10308C20.4452 2.65315 19.8348 2.40039 19.1984 2.40039C18.562 2.40039 17.9517 2.65315 17.5016 3.10308L8.39844 12.2063V15.5999H11.792L20.8952 6.49668C21.3452 6.04661 21.5979 5.43627 21.5979 4.79988C21.5979 4.16348 21.3452 3.55314 20.8952 3.10308Z" fill="#757575"/>
<path fill-rule="evenodd" clip-rule="evenodd" d="M2.39844 7.20078C2.39844 6.56426 2.65129 5.95381 3.10138 5.50372C3.55147 5.05364 4.16192 4.80078 4.79844 4.80078H9.59844C9.9167 4.80078 10.2219 4.92721 10.447 5.15225C10.672 5.3773 10.7984 5.68252 10.7984 6.00078C10.7984 6.31904 10.672 6.62427 10.447 6.84931C10.2219 7.07435 9.9167 7.20078 9.59844 7.20078H4.79844V19.2008H16.7984V14.4008C16.7984 14.0825 16.9249 13.7773 17.1499 13.5523C17.375 13.3272 17.6802 13.2008 17.9984 13.2008C18.3167 13.2008 18.6219 13.3272 18.847 13.5523C19.072 13.7773 19.1984 14.0825 19.1984 14.4008V19.2008C19.1984 19.8373 18.9456 20.4477 18.4955 20.8978C18.0454 21.3479 17.435 21.6008 16.7984 21.6008H4.79844C4.16192 21.6008 3.55147 21.3479 3.10138 20.8978C2.65129 20.4477 2.39844 19.8373 2.39844 19.2008V7.20078Z" fill="#757575"/>
</svg>
