<svg width="24" height="24" viewBox="0 0 24 24" fill="none" xmlns="http://www.w3.org/2000/svg">
<path d="M12.4728 2.4955C12.3234 2.43146 12.1625 2.39844 12 2.39844C11.8374 2.39844 11.6766 2.43146 11.5272 2.4955L3.12716 6.0955C2.91069 6.18772 2.72611 6.34154 2.59637 6.53783C2.46663 6.73412 2.39746 6.96421 2.39746 7.1995C2.39746 7.4348 2.46663 7.66489 2.59637 7.86118C2.72611 8.05747 2.91069 8.21129 3.12716 8.3035L6.29996 9.6607C6.41773 9.5275 6.56365 9.42215 6.72716 9.3523L11.5272 7.29551C11.6724 7.23077 11.8291 7.19554 11.9881 7.19188C12.147 7.18823 12.3052 7.2162 12.4532 7.27419C12.6013 7.33218 12.7364 7.41902 12.8506 7.52967C12.9648 7.64031 13.0559 7.77256 13.1186 7.91872C13.1812 8.06488 13.2142 8.22203 13.2156 8.38105C13.217 8.54007 13.1868 8.69778 13.1267 8.84502C13.0666 8.99225 12.9779 9.12607 12.8656 9.2387C12.7533 9.35134 12.6198 9.44053 12.4728 9.50111L9.20036 10.9051L11.5284 11.9023C11.6776 11.9662 11.8382 11.9991 12.0006 11.9991C12.1629 11.9991 12.3235 11.9662 12.4728 11.9023L20.8728 8.3023C21.0885 8.20974 21.2724 8.05593 21.4016 7.85991C21.5308 7.66389 21.5996 7.43428 21.5996 7.1995C21.5996 6.96473 21.5308 6.73512 21.4016 6.5391C21.2724 6.34308 21.0885 6.18926 20.8728 6.0967L12.4728 2.49671V2.4955Z" fill="#FF6B0A"/>
<path d="M3.97178 11.2746L5.99978 12.1422V17.0646C5.58428 16.9702 5.16354 16.9004 4.73978 16.8558C4.46635 16.8271 4.21108 16.7053 4.01667 16.5109C3.82227 16.3165 3.70051 16.0613 3.67178 15.7878C3.51396 14.2769 3.61542 12.7502 3.97178 11.2734V11.2746Z" fill="#FF6B0A"/>
<path d="M11.1599 19.8885C10.3487 19.0926 9.41733 18.4293 8.3999 17.9229V13.1745L10.5815 14.1105C11.0297 14.3027 11.5123 14.4017 11.9999 14.4017C12.4875 14.4017 12.9701 14.3027 13.4183 14.1105L20.0279 11.2773C20.3864 12.7538 20.4878 14.2809 20.3279 15.7917C20.2992 16.0652 20.1774 16.3204 19.983 16.5148C19.7886 16.7093 19.5333 16.831 19.2599 16.8597C16.8389 17.1142 14.5757 18.1819 12.8399 19.8885C12.6156 20.1084 12.314 20.2316 11.9999 20.2316C11.6858 20.2316 11.3842 20.1084 11.1599 19.8885Z" fill="#FF6B0A"/>
<path d="M7.2 21.5988C7.51826 21.5988 7.82348 21.4724 8.04853 21.2473C8.27357 21.0223 8.4 20.7171 8.4 20.3988V17.9208C7.6368 17.5416 6.83111 17.2548 6 17.0664V20.3988C6 20.7171 6.12643 21.0223 6.35147 21.2473C6.57652 21.4724 6.88174 21.5988 7.2 21.5988Z" fill="#FF6B0A"/>
</svg>
