<svg width="24" height="24" viewBox="0 0 24 24" fill="none" xmlns="http://www.w3.org/2000/svg">
<path fill-rule="evenodd" clip-rule="evenodd" d="M10.8016 2.40039C10.5788 2.40051 10.3604 2.46265 10.1709 2.57985C9.98146 2.69706 9.82835 2.86469 9.72876 3.06399L8.85996 4.80039H4.80156C4.4833 4.80039 4.17808 4.92682 3.95303 5.15186C3.72799 5.37691 3.60156 5.68213 3.60156 6.00039C3.60156 6.31865 3.72799 6.62387 3.95303 6.84892C4.17808 7.07396 4.4833 7.20039 4.80156 7.20039V19.2004C4.80156 19.8369 5.05442 20.4474 5.50451 20.8974C5.95459 21.3475 6.56504 21.6004 7.20156 21.6004H16.8016C17.4381 21.6004 18.0485 21.3475 18.4986 20.8974C18.9487 20.4474 19.2016 19.8369 19.2016 19.2004V7.20039C19.5198 7.20039 19.825 7.07396 20.0501 6.84892C20.2751 6.62387 20.4016 6.31865 20.4016 6.00039C20.4016 5.68213 20.2751 5.37691 20.0501 5.15186C19.825 4.92682 19.5198 4.80039 19.2016 4.80039H15.1432L14.2744 3.06399C14.1748 2.86469 14.0217 2.69706 13.8322 2.57985C13.6427 2.46265 13.4244 2.40051 13.2016 2.40039H10.8016ZM8.40156 9.60039C8.40156 9.28213 8.52799 8.97691 8.75303 8.75186C8.97808 8.52682 9.2833 8.40039 9.60156 8.40039C9.91982 8.40039 10.225 8.52682 10.4501 8.75186C10.6751 8.97691 10.8016 9.28213 10.8016 9.60039V16.8004C10.8016 17.1186 10.6751 17.4239 10.4501 17.6489C10.225 17.874 9.91982 18.0004 9.60156 18.0004C9.2833 18.0004 8.97808 17.874 8.75303 17.6489C8.52799 17.4239 8.40156 17.1186 8.40156 16.8004V9.60039ZM14.4016 8.40039C14.0833 8.40039 13.7781 8.52682 13.553 8.75186C13.328 8.97691 13.2016 9.28213 13.2016 9.60039V16.8004C13.2016 17.1186 13.328 17.4239 13.553 17.6489C13.7781 17.874 14.0833 18.0004 14.4016 18.0004C14.7198 18.0004 15.025 17.874 15.2501 17.6489C15.4751 17.4239 15.6016 17.1186 15.6016 16.8004V9.60039C15.6016 9.28213 15.4751 8.97691 15.2501 8.75186C15.025 8.52682 14.7198 8.40039 14.4016 8.40039Z" fill="#757575"/>
</svg>
