<svg width="24" height="24" viewBox="0 0 24 24" fill="none" xmlns="http://www.w3.org/2000/svg">
    <path
        d="M8.7999 1.76559C7.49156 1.12858 6.05508 0.798603 4.5999 0.800792C3.0939 0.800792 1.6683 1.14879 0.399902 1.76559V13.7656C1.70826 13.1286 3.14473 12.7986 4.5999 12.8008C6.6027 12.8008 8.4615 13.4128 9.9999 14.4628C11.5912 13.3771 13.4735 12.7977 15.3999 12.8008C16.9059 12.8008 18.3315 13.1488 19.5999 13.7656V1.76559C18.2916 1.12858 16.8551 0.798603 15.3999 0.800792C13.8939 0.800792 12.4683 1.14879 11.1999 1.76559V10.4008C11.1999 10.7191 11.0735 11.0243 10.8484 11.2493C10.6234 11.4744 10.3182 11.6008 9.9999 11.6008C9.68164 11.6008 9.37642 11.4744 9.15137 11.2493C8.92633 11.0243 8.7999 10.7191 8.7999 10.4008V1.76559Z"
        fill="#FF6B0A" />
</svg>